<svg width="16" height="16" viewBox="0 0 16 16" fill="none" xmlns="http://www.w3.org/2000/svg">
    <path d="M8 5.33333C7.29276 5.33333 6.61448 5.61428 6.11438 6.11438C5.61428 6.61448 5.33333 7.29276 5.33333 8C5.33333 8.70724 5.61428 9.38552 6.11438 9.88562C6.61448 10.3857 7.29276 10.6667 8 10.6667C8.70724 10.6667 9.38552 10.3857 9.88562 9.88562C10.3857 9.38552 10.6667 8.70724 10.6667 8C10.6667 7.29276 10.3857 6.61448 9.88562 6.11438C9.38552 5.61428 8.70724 5.33333 8 5.33333Z" fill="white"/>
    <path fill-rule="evenodd" clip-rule="evenodd" d="M4.8 0C3.52696 0 2.30606 0.505713 1.40589 1.40589C0.505713 2.30606 0 3.52696 0 4.8L0 11.2C0 12.473 0.505713 13.6939 1.40589 14.5941C2.30606 15.4943 3.52696 16 4.8 16H11.2C12.473 16 13.6939 15.4943 14.5941 14.5941C15.4943 13.6939 16 12.473 16 11.2V4.8C16 3.52696 15.4943 2.30606 14.5941 1.40589C13.6939 0.505713 12.473 0 11.2 0L4.8 0ZM4.26667 8C4.26667 6.97565 4.67428 5.99369 5.39943 5.26853C6.12458 4.54338 7.10654 4.13577 8.13089 4.13577C9.15525 4.13577 10.1372 4.54338 10.8624 5.26853C11.5875 5.99369 11.9951 6.97565 11.9951 8C11.9951 9.02435 11.5875 10.0063 10.8624 10.7315C10.1372 11.4566 9.15525 11.8642 8.13089 11.8642C7.10654 11.8642 6.12458 11.4566 5.39943 10.7315C4.67428 10.0063 4.26667 9.02435 4.26667 8ZM11.7333 4.8C11.7333 4.61217 11.8087 4.43185 11.9428 4.29772C12.0769 4.16359 12.2572 4.08815 12.445 4.08815C12.6329 4.08815 12.8132 4.16359 12.9473 4.29772C13.0814 4.43185 13.1569 4.61217 13.1569 4.8C13.1569 4.98783 13.0814 5.16815 12.9473 5.30228C12.8132 5.43641 12.6329 5.51185 12.445 5.51185C12.2572 5.51185 12.0769 5.43641 11.9428 5.30228C11.8087 5.16815 11.7333 4.98783 11.7333 4.8Z" fill="white"/>
</svg> 