<svg width="16" height="16" viewBox="0 0 16 16" fill="none" xmlns="http://www.w3.org/2000/svg">
    <path fill-rule="evenodd" clip-rule="evenodd" d="M13.6412 2.35881C12.1154 0.832995 10.1149 0 7.99424 0C3.62756 0 0.0884724 3.53909 0.0884724 7.90577C0.0884724 9.30485 0.436813 10.6693 1.10266 11.8783L0 16L4.20415 14.9228C5.36801 15.5294 6.66624 15.8501 7.99067 15.8501H7.99424C12.3574 15.8501 16 12.3111 16 7.94436C16 5.82368 15.167 3.88462 13.6412 2.35881ZM7.99424 14.5126C6.81109 14.5126 5.65795 14.2073 4.64532 13.6278L4.40577 13.4861L1.90843 14.1312L2.56422 11.7045L2.40888 11.4564C1.77237 10.4081 1.42959 9.17561 1.42959 7.90577C1.42959 4.27721 4.36592 1.34088 7.99781 1.34088C9.75959 1.34088 11.4177 2.02524 12.6651 3.27621C13.9125 4.52719 14.6626 6.18533 14.6589 7.94436C14.6589 11.5765 11.6226 14.5126 7.99424 14.5126ZM11.6119 9.56726C11.4209 9.47151 10.4403 8.99052 10.2635 8.92692C10.0868 8.85975 9.95793 8.82831 9.82906 9.01935C9.70019 9.21038 9.31915 9.65923 9.20457 9.7881C9.09356 9.91697 8.97898 9.93412 8.78795 9.83837C8.59691 9.74262 7.94397 9.52944 7.17593 8.84508C6.57871 8.31337 6.17124 7.65686 6.06023 7.46582C5.94922 7.27479 6.04854 7.17091 6.14429 7.07516C6.23291 6.98654 6.33937 6.84338 6.43512 6.73237C6.53087 6.62136 6.56231 6.53989 6.62947 6.41102C6.69664 6.28215 6.6652 6.17114 6.61232 6.07539C6.56231 5.97964 6.15841 4.99547 5.99594 4.61443C5.83704 4.24411 5.67457 4.29699 5.55642 4.29056C5.44541 4.28413 5.31654 4.28413 5.18767 4.28413C5.0588 4.28413 4.85348 4.33701 4.67673 4.52804C4.49998 4.71908 3.98613 5.20007 3.98613 6.18424C3.98613 7.16841 4.69745 8.11829 4.7932 8.24716C4.88895 8.37603 6.16695 10.3008 8.07873 11.1654C8.61044 11.3968 9.02506 11.5336 9.34855 11.6375C9.87311 11.8104 10.3505 11.7861 10.7293 11.7332C11.151 11.6732 11.9476 11.2494 12.1101 10.8041C12.2725 10.3587 12.2725 9.97769 12.2197 9.7881C12.1668 9.59849 12.0379 9.52944 11.8469 9.43369L11.6119 9.56726Z" fill="white"/>
</svg> 